<?xml version="1.0" encoding="UTF-8"?>
<!DOCTYPE svg PUBLIC "-//W3C//DTD SVG 1.1//EN" "http://www.w3.org/Graphics/SVG/1.1/DTD/svg11.dtd">
<!-- Creator: CorelDRAW X8 -->
<svg xmlns="http://www.w3.org/2000/svg" xml:space="preserve" width="189px" height="139px" version="1.1" style="shape-rendering:geometricPrecision; text-rendering:geometricPrecision; image-rendering:optimizeQuality; fill-rule:evenodd; clip-rule:evenodd"
viewBox="0 0 120 88"
 xmlns:xlink="http://www.w3.org/1999/xlink">
 <defs>
  <style type="text/css">
   <![CDATA[
    .str0 {stroke:#00A0E3;stroke-width:7.52005}
    .str1 {stroke:#00A0E3;stroke-width:3.76003;stroke-linecap:round}
    .fil0 {fill:none;fill-rule:nonzero}
   ]]>
  </style>
 </defs>
 <g id="Layer_x0020_1">
  <metadata id="CorelCorpID_0Corel-Layer"/>
  <path class="fil0 str0" d="M102 85c11,-3 15,-11 14,-21 0,-8 -5,-13 -13,-15 3,-10 -1,-18 -10,-24 -12,-5 -23,-4 -32,5 -8,-5 -16,-5 -25,-1 -7,4 -10,11 -8,20 -10,2 -15,8 -15,17 -1,10 4,16 14,19l75 0z"/>
  <path class="fil0 str1" d="M18 42c0,-15 12,-25 25,-25"/>
  <path class="fil0 str1" d="M10 42c1,-21 17,-32 33,-33"/>
  <path class="fil0 str1" d="M2 42c0,-28 27,-40 41,-40"/>
 </g>
</svg>
